<?xml version="1.0" standalone="no"?><!DOCTYPE svg PUBLIC "-//W3C//DTD SVG 1.1//EN" "http://www.w3.org/Graphics/SVG/1.1/DTD/svg11.dtd"><svg t="1643993530158" class="icon" viewBox="0 0 1024 1024" version="1.1" xmlns="http://www.w3.org/2000/svg" p-id="3251" xmlns:xlink="http://www.w3.org/1999/xlink" width="128" height="128"><defs><style type="text/css"></style></defs><path d="M666.83870938-1714.09994362m-247.741935 1e-8a247.74193594 247.74193594 0 1 0 495.48387093 0 247.74193594 247.74193594 0 1 0-495.48387093 0Z" fill="#E8F3FF" p-id="3252"></path><path d="M604.490323 439.329032l33.032258 33.032258-122.219355 92.490323-122.219355-92.490323 33.032258-33.032258 89.187097 62.761291 89.187097-62.761291z m75.974193 72.670968l33.032258 29.729032 3.303226 3.303226-198.193548 151.948387-198.193549-151.948387 33.032258-33.032258 165.161291 118.916129 161.858064-118.916129z m-165.16129-155.251613l49.548387 49.548387-49.548387 33.032258-49.548387-33.032258 49.548387-49.548387z" fill="#007AFF" p-id="3253"></path><path d="M960.99598417-908.03888463L683.04608871-1185.98878007H63.00401583v897.99196833h897.99196834V-908.03888463zM127.14629909-352.13909502V-1121.84649681h530.24287606l239.46452576 239.46452574V-352.13909502H127.14629909z" fill="#0A1429" p-id="3254"></path></svg>